/* XPM */
static char * skull_xpm[] = {
"32 32 7 1",
" 	c None",
".	c #C0C0C0",
"+	c #000000",
"@	c #FFFFFF",
"#	c #808080",
"$	c #00BF00",
"%	c #00FF00",
"..........++++++++++++..........",
"........++.@#+#.#.#.##++........",
".......+@@#.#..@@@@.@...+.......",
"......+@@#..@@@@@@@@#@.#.+......",
".....+@..@@@@@@@@@@@@@@.@.+.....",
"....+#@.#.@@@@#+#+#+#@#@.#.+....",
"....+.@#.@@@@+#######+@@#@#.+...",
"....+@@.@@@@###.#.#.###@@.@.+...",
"....+@@@@@@+##.#.#.#..#+@@#@+...",
"....+@@#@@@##.#.....##.#@@@.+...",
"....+@#@#.##.#........#.+@@#+...",
"...+.@.+#@@..##...#..#.##@+@#+..",
"...+@@+#@@@@..#...#...#.@@@+@+..",
"...+@@++#.....#+.##.##.@.#++.+..",
"..+#@.++++++#..##+##+..+++++#+..",
".+@@@.++$$%%++++#.#+++++%%++#@+.",
"+.@.@.#+++$%%$++#..#++$%%++.##@+",
"+@@.@@.#++++++++.#+@.+++++#@.#@+",
".+@#.@@..#+++#+.#++..#+++.@.#@+.",
".+@@#.#@@.##.+#.#++#@..#..#.@@+.",
"..+@@@.#.@.....#++++.@.@.#.@.+..",
"...+++@..#@...#.++++.#@.#@+++...",
"......++@.#...#.++#+#..#+++.....",
"........++#@.@..+.#+..##++......",
"..........++#.@.#....@.##+......",
"..........++#.....#..#@.#+......",
"..........+#.@@#.@....@..+......",
"..........+#@@+#.@+.@##@.+......",
"..........+@@.+#@@+@.#+@@+......",
"...........+.#+..@+.@#+.+.......",
"............++++++++++++........",
"................................"};
